<?xml version="1.0" encoding="UTF-8" standalone="no"?>
<!-- Created with Inkscape (http://www.inkscape.org/) -->

<svg
   xmlns:dc="http://purl.org/dc/elements/1.1/"
   xmlns:cc="http://creativecommons.org/ns#"
   xmlns:rdf="http://www.w3.org/1999/02/22-rdf-syntax-ns#"
   xmlns:svg="http://www.w3.org/2000/svg"
   xmlns="http://www.w3.org/2000/svg"
   xmlns:sodipodi="http://sodipodi.sourceforge.net/DTD/sodipodi-0.dtd"
   xmlns:inkscape="http://www.inkscape.org/namespaces/inkscape"
   width="32"
   height="32"
   viewBox="0 0 31.999999 31.999995"
   id="svg2"
   version="1.1"
   inkscape:version="0.91 r13725"
   sodipodi:docname="dick.svg">
  <defs
     id="defs4" />
  <sodipodi:namedview
     id="base"
     pagecolor="#ffffff"
     bordercolor="#666666"
     borderopacity="1.0"
     inkscape:pageopacity="0.0"
     inkscape:pageshadow="2"
     inkscape:zoom="30.70979"
     inkscape:cx="16.592169"
     inkscape:cy="14.750988"
     inkscape:document-units="px"
     inkscape:current-layer="layer1"
     showgrid="false"
     fit-margin-top="0"
     fit-margin-left="0"
     fit-margin-right="0"
     fit-margin-bottom="0"
     inkscape:window-width="2048"
     inkscape:window-height="1089"
     inkscape:window-x="-8"
     inkscape:window-y="-8"
     inkscape:window-maximized="1"
     units="px" />
  <metadata
     id="metadata7">
    <rdf:RDF>
      <cc:Work
         rdf:about="">
        <dc:format>image/svg+xml</dc:format>
        <dc:type
           rdf:resource="http://purl.org/dc/dcmitype/StillImage" />
        <dc:title></dc:title>
      </cc:Work>
    </rdf:RDF>
  </metadata>
  <g
     inkscape:label="Layer 1"
     inkscape:groupmode="layer"
     id="layer1"
     transform="translate(-202.84703,-277.96887)">
    <g
       id="g4142"
       style="fill:#000000;stroke:#000000"
       transform="matrix(0.13800449,0,0,0.13800449,174.85322,265.19178)">
      <path
         inkscape:connector-curvature="0"
         d="m 274.83717,218.96436 c -8.31797,-0.75001 -16.63958,-1.43581 -24.99562,-0.85088 -1.93811,0.13561 -3.86444,0.40584 -5.79666,0.60876 -4.16819,0.88553 -6.29569,1.1176 -10.20173,2.78652 -1.47797,0.63149 -5.70162,2.96975 -4.26621,2.24673 3.11914,-1.57117 5.94078,-3.90064 9.31781,-4.79129 1.49552,-0.39443 -2.30503,2.07084 -3.34469,3.21593 -1.02592,1.12995 -1.89174,2.39554 -2.83762,3.59331 -4.21026,6.05489 -5.73221,13.08946 -6.84011,20.22557 -0.76014,4.88306 -0.95568,9.82422 -1.06002,14.7569 -0.32277,4.27055 0.65985,7.79528 2.5303,11.57945 2.36797,4.53361 5.52998,7.8349 9.89836,10.43628 3.55568,1.96089 7.50735,2.46965 11.48969,2.69001 2.38968,-0.21692 4.90288,-0.50341 7.17024,-1.35448 1.22763,-0.46084 2.39082,-1.0785 3.59884,-1.58851 6.32734,-3.71846 -2.5845,1.52718 -9.92198,5.66426 -0.67731,0.38189 1.33033,-0.80581 1.98255,-1.22912 2.27803,-1.47854 4.36109,-3.11255 6.43168,-4.86528 5.07276,-4.68238 9.18086,-10.21983 12.83023,-16.04532 4.0166,-6.58749 6.14966,-13.95399 7.46588,-21.49082 0.71326,-4.32699 0.81858,-8.71056 0.8397,-13.08462 0.0134,-3.66193 -0.0311,-7.32385 -0.0484,-10.98573 -0.02,-3.69408 -0.0163,-7.38818 -0.0105,-11.08231 0.0299,-4.56004 -0.47539,-9.10822 -0.98966,-13.63353 -0.5854,-5.26129 -0.865,-10.54893 -1.03809,-15.83774 -0.11411,-3.59239 -0.13203,-7.18677 -0.14398,-10.78063 -0.003,-3.27274 0.012,-6.54534 0.0306,-9.81801 0.0224,-3.5991 -0.18086,-7.19368 0.36295,-10.7611 0.8982,-4.55586 2.85723,-8.70378 5.37146,-12.56835 6.72378,-9.44237 14.32653,-12.23589 24.89423,-18.3173 3.14213,-1.84676 6.57971,-2.56086 10.16161,-2.837 2.84072,-0.17513 5.68803,-0.15867 8.53262,-0.14472 2.20038,0.0151 4.40081,0.0236 6.60124,0.0281 3.01011,0.42115 5.36754,2.19815 7.43747,4.30237 3.59021,3.93231 6.28412,8.49082 8.74956,13.17903 2.96273,5.47062 5.00835,11.34127 7.12505,17.16905 2.21731,5.83309 4.16793,11.75676 6.03783,17.7088 1.9307,6.7016 4.13544,13.32729 5.9628,20.05838 1.51408,6.58665 3.25252,13.11443 4.61261,19.73584 0.77702,4.29552 1.21846,8.63895 1.82494,12.96053 0.43462,3.28975 0.53713,6.609 0.61839,9.92237 0.0439,2.78224 0.0529,5.56539 0.0406,8.34798 -0.007,2.55409 0.012,5.10817 -0.001,7.66222 -0.0179,3.05602 -0.0245,6.11215 -0.0206,9.16823 0.0548,2.78824 -0.0759,5.58091 0.10365,8.3647 0.28091,2.65282 0.54389,5.29664 1.35941,7.84599 0.61461,2.34831 1.74175,4.45662 2.97332,6.52425 1.40675,2.02426 2.22812,4.35819 3.57576,6.41374 1.92179,2.85812 4.50207,4.84684 7.58518,6.29557 2.47232,0.77983 4.91101,1.72909 7.46597,2.21438 2.32836,0.38108 3.88547,0.49418 5.77546,-1.06777 -24.17446,14.83585 -9.30265,5.43555 -4.43451,0.70094 2.93489,-3.09772 5.44723,-6.52234 7.60101,-10.19728 1.78678,-3.25819 3.22741,-6.72833 4.30946,-10.28406 0.53758,-2.42889 1.0583,-4.86878 1.43787,-7.32895 0.3319,-2.30225 0.3859,-4.62935 0.43847,-6.95073 0.0308,-2.62862 0.027,-5.25741 0.0172,-7.88613 0.15335,-2.78173 -0.092,-5.41567 -0.88864,-8.08237 -1.53816,-4.59522 -4.75933,-8.29851 -7.93162,-11.85646 -2.57807,-2.79615 -5.64713,-5.00316 -8.938,-6.87378 -1.8957,-1.15043 -3.78695,-2.41978 -5.8559,-3.24078 -1.77907,-0.5322 -3.65544,-0.53108 -5.49602,-0.56295 -2.10977,-0.0169 -4.21964,-7.1e-4 -6.32943,0.007 -2.29416,0.0119 -4.58833,0.001 -6.8825,0.003 -2.29766,0.10888 -4.63836,-0.22871 -6.90474,0.20779 -0.35562,0.0682 -0.71123,0.13665 -1.06685,0.20497 0,0 12.66437,-9.51545 12.66437,-9.51545 l 0,0 c 0.36965,-0.0491 0.73929,-0.0981 1.10893,-0.14726 2.33015,-0.10813 4.66401,-0.026 6.99609,-0.0493 2.30033,-0.001 4.60062,-0.0161 6.90095,-0.0214 2.1225,-0.007 4.24575,-0.027 6.36766,0.0351 1.99498,0.0927 4.01708,0.22723 5.86387,1.06345 2.02675,1.01426 3.96632,2.20712 5.86178,3.44664 3.34837,2.05885 6.49294,4.38745 9.11438,7.34735 3.26003,3.75848 6.56654,7.64582 8.29642,12.38215 0.97861,2.79163 1.45276,5.50705 1.20693,8.47273 -0.003,2.6339 0.012,5.26771 0.003,7.90159 -0.009,2.38255 -0.0671,4.7691 -0.35231,7.13715 -0.33944,2.53803 -0.89532,5.02669 -1.36895,7.53963 -1.01662,3.68615 -2.55997,7.23423 -4.23595,10.65818 -2.09538,3.79257 -4.54095,7.33594 -7.45487,10.55515 -6.04151,6.76492 -14.78244,10.78034 -22.35072,15.29032 -2.14856,0.809 -4.2798,0.68425 -6.49785,0.14247 -2.58614,-0.66767 -5.12244,-1.57961 -7.58807,-2.5961 -3.22082,-1.71126 -5.99772,-3.91503 -8.06208,-6.96663 -1.38265,-2.07124 -2.27065,-4.38795 -3.65273,-6.45956 -1.28003,-2.16903 -2.46685,-4.37671 -3.13587,-6.8253 -0.90125,-2.65352 -1.18986,-5.41117 -1.50033,-8.18558 -0.30829,-2.82053 -0.1156,-5.66162 -0.15169,-8.4954 0.004,-3.04962 -0.003,-6.0993 -0.019,-9.14888 -0.0105,-2.55657 0.0134,-5.11311 0.0134,-7.6697 -0.004,-2.77689 0.0222,-5.55379 -0.007,-8.33065 -0.0388,-3.26432 -0.12007,-6.53382 -0.50878,-9.77863 -0.5342,-4.32305 -0.9891,-8.65327 -1.61382,-12.96346 -1.22441,-6.62634 -3.06122,-13.09671 -4.47715,-19.68167 -1.81762,-6.70917 -4.07018,-13.29494 -5.97543,-19.979 -1.88071,-5.92407 -3.83017,-11.82247 -6.0738,-17.61988 -2.05129,-5.77608 -4.01182,-11.60017 -6.97578,-16.99492 -2.43758,-4.51937 -5.07531,-8.93838 -8.65524,-12.6646 -1.94827,-1.77549 -4.12167,-3.24688 -6.86452,-3.23318 -2.19561,-0.009 -4.39117,-0.0239 -6.5867,-0.0427 -2.7932,-0.0135 -5.59282,-0.029 -8.37605,0.24357 -3.45443,0.45889 -6.70139,1.4674 -9.71296,3.2721 22.0353,-12.92788 11.30847,-7.23446 7.16905,-3.69749 -2.06368,1.76333 -3.93036,3.74223 -5.53703,5.93179 -2.57041,3.63053 -4.58499,7.5382 -5.5385,11.92059 -0.71787,3.47357 -0.48366,6.99094 -0.50363,10.52174 0.0149,3.26574 0.0218,6.53137 0.0105,9.79715 -0.0155,3.59808 -0.0312,7.19643 0.022,10.79431 0.11276,5.25455 0.31483,10.5125 0.93301,15.73591 0.54344,4.56367 1.16119,9.1442 1.16435,13.7469 0.009,3.6892 0.0152,7.37842 0.0247,11.06762 0.0161,3.66403 0.0366,7.32802 0.0703,10.99195 -0.026,4.48665 -0.20341,8.9885 -0.92798,13.42349 -1.35798,7.67099 -3.37439,15.23831 -7.28744,22.04935 -3.55606,5.93464 -7.58848,11.54068 -12.52777,16.42065 -7.37963,6.76501 -16.38682,11.52511 -25.25847,16.02992 -3.58258,1.47755 -7.31021,2.57749 -11.23529,2.37229 -4.15072,-0.3765 -8.21081,-1.1723 -11.82904,-3.37367 -4.48312,-2.88648 -7.86236,-6.40068 -10.35777,-11.15739 -2.05208,-3.95491 -3.27906,-7.72086 -2.91792,-12.24492 0.11664,-5.00656 0.31552,-10.02229 1.03881,-14.98421 1.20586,-7.3466 2.66226,-14.6462 6.76918,-21.02858 1.40665,-1.92508 3.99856,-5.81515 6.02783,-7.2108 2.05207,-1.41135 14.81311,-10.0218 21.23623,-12.45366 4.03103,-1.5262 6.05431,-1.68776 10.31631,-2.46508 1.94233,-0.16987 3.88031,-0.40037 5.82698,-0.50961 8.53092,-0.47869 17.02399,0.31256 25.54494,0.51022 0,0 -12.7497,9.2632 -12.7497,9.2632 z"
         id="path4138"
         style="fill:#000000;fill-opacity:1;stroke:#000000;stroke-width:15.84740353;stroke-miterlimit:4;stroke-dasharray:none;stroke-dashoffset:0;stroke-opacity:1" />
      <path
         inkscape:connector-curvature="0"
         d="m 296.94505,162.74654 c 5.44362,0.11126 10.88888,0.0805 16.33319,0.0541 3.93824,-0.012 7.87647,-0.0272 11.81472,-0.039 2.86669,-0.003 5.73343,-0.0158 8.60013,-0.0104 2.52011,-1.1e-4 5.04023,-0.006 7.56032,-0.0105 2.17368,-0.003 4.34735,-0.003 6.52102,-0.003 2.13006,-1.7e-4 4.26011,-9e-5 6.39016,-6e-5 0,0 -12.81978,9.31411 -12.81978,9.31411 l 0,0 c -2.12998,3e-5 -4.25998,10e-5 -6.38998,-6e-5 -2.17051,-2.9e-4 -4.34103,-7.2e-4 -6.51154,-0.003 -2.5109,-0.003 -5.0218,-0.0105 -7.5327,-0.0105 -2.85704,0.006 -5.71414,-0.007 -8.57118,-0.0105 -3.9025,-0.0119 -7.80497,-0.0266 -11.70746,-0.039 -5.49387,-0.027 -10.98861,-0.0553 -16.48181,0.0541 0,0 12.79491,-9.29604 12.79491,-9.29604 z"
         id="path4140"
         style="fill:#000000;fill-opacity:1;stroke:#000000;stroke-width:15.84740353;stroke-miterlimit:4;stroke-dasharray:none;stroke-dashoffset:0;stroke-opacity:1" />
    </g>
  </g>
</svg>
