<?xml version="1.0" encoding="UTF-8" standalone="no"?>
<!-- Created with Inkscape (http://www.inkscape.org/) -->

<svg
   xmlns:dc="http://purl.org/dc/elements/1.1/"
   xmlns:cc="http://creativecommons.org/ns#"
   xmlns:rdf="http://www.w3.org/1999/02/22-rdf-syntax-ns#"
   xmlns:svg="http://www.w3.org/2000/svg"
   xmlns="http://www.w3.org/2000/svg"
   xmlns:sodipodi="http://sodipodi.sourceforge.net/DTD/sodipodi-0.dtd"
   xmlns:inkscape="http://www.inkscape.org/namespaces/inkscape"
   width="210mm"
   height="297mm"
   viewBox="0 0 210 297"
   version="1.1"
   id="svg8"
   inkscape:version="0.92.1 r15371"
   sodipodi:docname="folder.svg">
  <defs
     id="defs2" />
  <sodipodi:namedview
     id="base"
     pagecolor="#ffffff"
     bordercolor="#666666"
     borderopacity="1.0"
     inkscape:pageopacity="0.0"
     inkscape:pageshadow="2"
     inkscape:zoom="0.56480079"
     inkscape:cx="396.85039"
     inkscape:cy="561.25984"
     inkscape:document-units="mm"
     inkscape:current-layer="layer1"
     showgrid="false"
     inkscape:window-width="1536"
     inkscape:window-height="801"
     inkscape:window-x="1912"
     inkscape:window-y="88"
     inkscape:window-maximized="1" />
  <metadata
     id="metadata5">
    <rdf:RDF>
      <cc:Work
         rdf:about="">
        <dc:format>image/svg+xml</dc:format>
        <dc:type
           rdf:resource="http://purl.org/dc/dcmitype/StillImage" />
        <dc:title></dc:title>
      </cc:Work>
    </rdf:RDF>
  </metadata>
  <g
     inkscape:label="Layer 1"
     inkscape:groupmode="layer"
     id="layer1">
    <path
       style="fill:#ffd42a;stroke:#000000;stroke-width:4.45023346;stroke-linecap:butt;stroke-linejoin:miter;stroke-miterlimit:4;stroke-dasharray:none;stroke-opacity:1"
       d="m 20.063012,50.981487 c 0,6.530883 0,13.061768 0,19.592643 0,0.686832 0.115757,7.784518 0,8.067559 -0.140531,0.343609 -0.720538,-0.27165 -0.942747,0 -0.0427,0.05221 0,5.219128 0,5.762545 0,1.152498 0,2.305021 0,3.457519 0,0.384165 -0.314248,1.152522 0,1.152522 0.444417,0 0.942747,-1.695816 0.942747,-1.152522 0,0.85904 -0.720538,1.490066 -0.942747,2.30502 -0.182973,0.671079 0,6.122028 0,6.915061 0,0.602659 -0.123947,4.306966 0,4.610016 0.198752,0.48595 0.802214,0.63708 0.942747,1.1525 0.245679,0.90103 -0.259395,6.28083 0,6.91506 0.198751,0.48594 0.802211,0.63708 0.942752,1.1525 0.29812,1.09337 0,2.30502 0,3.45751 0,3.45755 0,6.91506 0,10.37258 0,3.07336 -0.314251,-0.38416 0.942744,1.15253 0.222208,0.27163 0,0.76833 0,1.15249 0,0.38417 0,0.76834 0,1.15253 0,4.61001 0,9.22005 0,13.83009 0,2.70284 -0.222203,-0.54329 0.942752,2.30502 0.143449,0.35073 0,2.93848 0,3.45752 0,0.38417 0,0.76833 0,1.1525 0,0.38416 0.314249,1.15252 0,1.15252 -0.314251,0 -0.222209,-1.42416 0,-1.15252 0.49687,0.60743 0.720542,1.49007 0.94275,2.30502 0.198751,0.72892 0,1.53669 0,2.30502 0,0.38417 0.314245,1.1525 0,1.1525 -0.444417,0 -1.257001,-0.76833 -0.94275,-1.1525 0.314249,-0.38417 0.94275,0.6092 0.94275,1.1525 0,0.38416 -0.94275,-0.38417 -0.94275,0 0,0.54329 0.94275,0.60923 0.94275,1.15252 0,0.38417 -0.94275,-0.38417 -0.94275,0 0,0.54329 0.743997,0.66655 0.94275,1.1525 0.140531,0.34362 0,0.76833 0,1.15252 0,0.38417 0.314245,1.1525 0,1.1525 -3.034663,0 4.06945,-3.8224 0.942746,0 -0.31425,0.38416 -0.498335,-1.1525 -0.942746,-1.1525 -1.14292,0 0.234658,1.43939 0.942746,2.305 0.314251,0.38419 0.94275,0.60922 0.94275,1.15252 0,0.38416 -0.94275,-0.38417 -0.94275,0 0,2.39824 1.322084,0.46373 1.885497,1.15252 0.222208,0.27163 0,0.76833 0,1.1525 0.31425,0 0.661679,-0.17173 0.94275,0 3.923491,2.39821 -1.007834,-0.0795 0.942746,2.30502 0.222208,0.27163 0.720542,-0.27166 0.94275,0 0.222209,0.27163 -0.222208,0.88086 0,1.1525 0.222209,0.27166 0.661673,-0.17173 0.942752,0 0.397495,0.24307 0.628496,0.76835 0.942744,1.15249 0.314251,0.38419 0.744003,0.66658 0.942753,1.15253 0.14053,0.34362 -0.222209,0.88086 0,1.15249 0.222208,0.27166 0.720537,-0.27163 0.942746,0 0.222206,0.27166 -0.222209,0.88087 0,1.15253 0.222206,0.27163 0.661677,-0.17173 0.94275,0 0.397496,0.24307 0.54525,0.90952 0.94275,1.15249 0.281073,0.17173 0.720538,-0.27163 0.942746,0 0.222209,0.27166 -0.14053,0.80891 0,1.15253 0.58248,1.42415 0.910207,1.15249 1.885496,1.15249 0.314251,0 0.942751,-0.38416 0.942751,0 0,0.38417 -0.942751,-0.38416 -0.942751,0 0,0.5433 0.498335,1.1525 0.942751,1.1525 0.31425,0 -0.314249,-1.1525 0,-1.1525 0.444417,0 1.256996,0.76834 0.942746,1.1525 -0.314245,0.38419 -1.387162,-1.1525 -0.942746,-1.1525 0.21926,0 3.356559,2.17837 3.770994,2.30503 0.609735,0.18623 1.257001,0 1.885496,0 0.6285,0.38416 1.218877,0.88086 1.885497,1.15249 0.596249,0.24307 1.257001,0 1.885502,0 1.885496,0 3.770993,0 5.656489,0 6.28499,0 12.569981,0 18.854975,0 7.227737,0 14.455477,0 21.683211,0 2.514014,0 5.028008,0 7.541999,0 0.94274,0 1.91364,-0.2795 2.82824,0 0.68171,0.20838 1.21887,0.88087 1.8855,1.15253 0.60968,0.24843 3.68435,0 4.71374,0 3.771,0 7.54199,0 11.31299,0 0.50686,0 6.95305,-0.24012 7.542,0 0.42159,0.17172 0.52113,0.98069 0.94274,1.15249 0.87337,0.3559 3.81038,-0.3681 4.71374,0 0.66663,0.27166 1.21887,0.88087 1.8855,1.15253 0.51022,0.20789 3.44983,0 3.771,0 2.19975,0 4.39949,0 6.59924,0 1.8855,0 3.77098,0 5.65648,0 0.32117,0 3.26078,0.20789 3.771,0 0.66663,-0.27166 1.21887,-0.88087 1.8855,-1.15253 0.82401,-0.33577 5.08867,0.34709 5.65648,0 0.39751,-0.24307 0.54526,-0.90952 0.94276,-1.15249 0.28108,-0.17173 0.6285,0 0.94274,0 0.31425,0 0.62852,0 0.94276,0 1.57124,0 3.14249,0 4.71374,0 0.6285,0 1.32336,0.34359 1.8855,0 0.28107,-0.17173 -0.22221,-0.88087 0,-1.15253 0.2222,-0.27163 0.66166,0.17173 0.94274,0 0.39751,-0.24307 0.54526,-0.90952 0.94276,-1.15249 0.28107,-0.17173 0.94274,-0.38417 0.94274,0 0,0.38416 -0.94274,0.38416 -0.94274,0 0,-0.38417 0.66168,0.17172 0.94274,0 0.39751,-0.24308 0.54526,-0.90955 0.94274,-1.15253 0.56217,-0.34359 1.32336,0.34362 1.88551,0 1.1313,-0.6915 1.69695,-2.76599 2.82824,-3.45752 0.28108,-0.17172 0.72054,0.27166 0.94276,0 0.22221,-0.27163 -0.22222,-0.88086 0,-1.15249 0.22221,-0.27166 0.66167,0.17172 0.94274,0 0.3975,-0.24307 0.54525,-0.90955 0.94276,-1.15253 0.28106,-0.17172 0.72054,0.27166 0.94274,0 0.22221,-0.27163 0,-0.76833 0,-1.15249 0.31424,0 0.72054,0.27166 0.94276,0 0.22219,-0.27166 -0.31427,-1.15253 0,-1.15253 1.16097,0 -2.87709,5.82228 1.88548,0 0.22221,-0.27163 -0.14047,-0.80887 0,-1.15249 0.19883,-0.48595 0.74401,-0.66656 0.94276,-1.1525 0.14047,-0.34362 -0.22222,-0.88086 0,-1.15252 0.44441,-0.5433 1.44108,0.54331 1.8855,0 0.22219,-0.27164 -0.22222,-0.88087 0,-1.1525 0.22219,-0.27166 0.72054,0.27163 0.94274,0 0.44443,-0.5433 -0.44442,-1.76173 0,-2.30502 0.22221,-0.27166 0.72054,0.27166 0.94276,0 0.22219,-0.27166 -0.14047,-0.8089 0,-1.15252 0.50798,-1.24203 1.37749,-1.06297 1.88548,-2.305 0.14047,-0.34362 -0.14047,-0.8089 0,-1.15252 0.19883,-0.48595 0.74401,-0.66655 0.94276,-1.1525 0.28623,-0.69984 -0.28624,-6.21522 0,-6.91506 0.19883,-0.48595 0.74399,-0.66655 0.94274,-1.1525 0.12397,-0.30305 0,-4.00736 0,-4.61004 0,-3.45752 0,-6.91504 0,-10.37258 0,-6.1467 0,-12.29341 0,-18.44014 0,-0.38416 0,-0.76833 0,-1.15249 0,-0.38417 0.22221,-0.88087 0,-1.1525 -0.2222,-0.27166 -0.94274,0.38416 -0.94274,0 0,-0.54332 0.94274,-0.60923 0.94274,-1.15252 0,-0.38417 -0.94274,0.38416 -0.94274,0 1.25698,0 0.94274,0.38416 0.94274,-1.1525 0,-1.92086 0,-3.84171 0,-5.76254 0,-0.76836 0,-1.53669 0,-2.30502 0,-0.38417 0.31424,-1.15252 0,-1.15252 -0.44441,0 -0.94274,1.69581 -0.94274,1.15252 0,-0.85904 0.72054,-1.49007 0.94274,-2.305021 0.0994,-0.364459 0,-0.768332 0,-1.152498 0,-0.384166 0.22221,-0.880863 0,-1.152497 -0.2222,-0.27166 -0.94274,0.384166 -0.94274,0 0,-0.543319 0.62849,-1.536689 0.94274,-1.152523 0.31424,0.384166 -0.6285,1.536689 -0.94274,1.152523 -0.31425,-0.384191 0.94274,-0.609229 0.94274,-1.152523 0,-0.543294 -0.74399,-0.666576 -0.94274,-1.152498 -0.14047,-0.343621 0,-0.768356 0,-1.152522 0,-0.384166 0,-0.768332 0,-1.152498 0,-0.384166 -0.31425,-1.152522 0,-1.152522 0.31424,0 0,1.536688 0,1.152522 0,-1.152522 0,-2.30502 0,-3.457518 0,-0.384191 0,-0.768357 0,-1.152522 0,-0.384166 0.22221,-0.880864 0,-1.152498 -1.25699,-1.536689 -0.94276,1.920829 -0.94276,-1.152523 0,-0.384166 -0.31423,-1.152498 0,-1.152498 0.44443,0 1.257,0.768332 0.94276,1.152498 -1.09645,1.340411 -0.94276,-1.678324 -0.94276,-2.304995 0,-0.279532 0.0304,-3.420475 0,-3.457538 -0.2222,-0.27165 -0.94274,0.384171 -0.94274,0 0,-0.384171 0.94274,0.384171 0.94274,0 0,-0.543299 -0.94274,-0.609211 -0.94274,-1.15251 0,-0.384171 0.94274,0.384171 0.94274,0 0,-0.543299 -1.25699,-0.768335 -0.94274,-1.152505 0.31424,-0.384171 0.49834,1.152505 0.94274,1.152505 0.31426,0 0.14047,-0.808894 0,-1.152505 -0.19863,-0.485944 -0.94274,-0.609214 -0.94274,-1.152511 0,-0.38417 0.94274,0.384169 0.94274,0 0,-0.543299 -0.94274,-0.609213 -0.94274,-1.152505 0,-0.384171 0.94274,0.384164 0.94274,0 0,-0.543299 -0.74399,-0.666574 -0.94274,-1.15251 -0.14047,-0.343611 -0.31425,-1.152513 0,-1.152513 0.31424,0 0,1.536681 0,1.152513 0,-0.768342 0,-1.536676 0,-2.305018 0,-0.384168 0.22221,-0.88086 0,-1.15251 -0.63107,-0.771478 -1.25443,0.771486 -1.8855,0 -1.95057,-2.384579 2.98074,0.09322 -0.94274,-2.305015 -0.28108,-0.171799 -0.66168,0.171798 -0.94274,0 -0.6704,-0.409772 -1.21513,-1.895243 -1.88552,-2.305016 -0.56215,-0.343611 -1.32334,0.343612 -1.88548,0 -0.39751,-0.242973 -0.54526,-0.909534 -0.94276,-1.15251 -0.28106,-0.171798 -0.64462,0.121487 -0.94274,0 -0.66663,-0.271649 -1.21887,-0.880855 -1.8855,-1.152505 -0.61083,-0.248912 -3.94192,0 -4.71374,0 -4.08525,0 -8.1705,0 -12.25575,0 -5.65648,0 -11.31298,0 -16.96946,0 -0.84536,0 -7.09366,-0.182697 -7.542,0 -0.42161,0.171798 -0.52113,0.980702 -0.94274,1.152505 -0.48569,0.197926 -5.60198,0 -6.59924,0 -0.62852,0 -1.32336,-0.343611 -1.8855,0 -0.28108,0.171799 0.22219,0.880861 0,1.15251 -0.22222,0.27165 -0.6285,0 -0.94276,0 -2.19975,0 -4.3995,0 -6.59924,0 -5.34224,0 -10.68447,0 -16.02673,0 -1.57125,0 -3.14248,0 -4.71374,0 -0.31424,0 -0.62849,0 -0.94274,0 -0.31426,0 -0.66168,-0.171798 -0.94276,0 -0.3975,0.242973 -0.54523,0.909535 -0.94274,1.152511 -0.28108,0.171798 -0.62851,0 -0.94276,0 -0.31424,0 -0.62849,0 -0.94274,0 -1.571251,0 -3.142485,0 -4.713738,0 -0.444514,0 -4.671022,0.05221 -4.713747,0 -0.222209,-0.27165 0.281071,-0.980702 0,-1.152511 -0.221691,-0.135509 -3.151682,0 -3.770999,0 -2.199747,0 -4.399494,0 -6.599241,0 -0.314248,0 -0.628495,0 -0.942744,0 -0.314251,0 -0.942752,0.384171 -0.942752,0 0,-0.38417 1.257001,0 0.942752,0 -0.628501,0 -1.257001,0 -1.885496,0 -0.424578,0 -2.541339,0.175366 -2.828249,0 -0.3975,-0.242973 -0.545249,-0.909534 -0.94275,-1.15251 -0.281073,-0.171798 -0.628495,0 -0.942746,0 -0.314251,0 -0.628501,0 -0.94275,0 -0.314251,0 -0.942746,0.384169 -0.942746,0 0,-0.384166 1.256995,0 0.942746,0 -0.628502,0 -1.256997,0 -1.885496,0 -0.314251,0 -0.942753,0.384169 -0.942753,0 0,-0.384166 0.942753,-0.384166 0.942753,0 0,0.384169 -0.628502,0 -0.942753,0 -0.31425,0 -0.942746,0.384169 -0.942746,0 0,-0.384166 0.942746,0.384169 0.942746,0 0,-0.859031 -1.885496,-2.011536 -1.885496,-1.152505 0,0.882573 3.41774,3.025668 0,-1.152512 -0.222208,-0.271647 0.314251,1.152512 0,1.152512 -0.444417,0 -0.498333,-1.152512 -0.942746,-1.152512 -0.314249,0 0.314247,1.152512 0,1.152512 -3.126703,0 0,-2.159544 0,-1.152512 0,0.38417 -0.720542,0.271649 -0.94275,0 -0.222209,-0.271647 0.222208,-0.880854 0,-1.152503 -0.222209,-0.27165 -0.720542,0.271649 -0.94275,0 -0.222205,-0.27165 0,-0.768342 0,-1.152513 0,-0.384168 0,-0.768339 0,-1.15251 0,-0.384163 -0.314245,-1.152505 0,-1.152505 0.314248,0 0,1.536676 0,1.152505 0,-0.768334 0,-1.536676 0,-2.305015 0,-0.384171 0.14053,-0.808894 0,-1.152505 -0.198752,-0.485944 -0.743999,-0.666567 -0.942746,-1.152511 -0.140531,-0.343611 -0.314251,-1.152505 0,-1.152505 0.444417,0 1.256994,0.768335 0.942746,1.152505 -1.096453,1.340416 -0.942746,-1.678326 -0.942746,-2.305015 0,-0.279512 -0.03031,-3.420462 0,-3.457528 0.222208,-0.271649 0.942746,0.384171 0.942746,0 0,-0.543299 -1.256997,-0.768334 -0.942746,-1.152503 0.31425,-0.38417 0.498333,1.152503 0.942746,1.152503 0.314248,0 0.14053,-0.808894 0,-1.152503 -0.198752,-0.485946 -0.942746,-0.609213 -0.942746,-1.152512 0,-0.384171 0.942746,-0.384171 0.942746,0 0,1.536681 -2.199747,-1.152505 -0.942746,-1.152505 0.31425,0 0.31425,1.152505 0,1.152505 -0.444418,0 -0.498336,-1.152505 -0.942751,-1.152505 -0.31425,0 0,1.536676 0,1.152505 0,-0.768339 0.281072,-1.617795 0,-2.305016 -0.14053,-0.343611 -0.942746,-0.38417 -0.942746,0 0,0.543299 1.387161,1.152511 0.942746,1.152511 -1.356072,0 -2.828242,-2.779964 -2.828242,-1.152511 0,0.543299 1.387161,1.152511 0.942744,1.152511 -0.702683,0 -1.182811,-1.152511 -1.885496,-1.152511 -0.314249,0 0.31425,1.152511 0,1.152511 -0.444415,0 -0.54525,-0.909543 -0.94275,-1.152511 -0.211299,-0.129162 -3.546969,0 -3.770993,0 -0.314251,0 -0.628501,0 -0.942746,0 -0.314251,0 -0.94275,-0.38417 -0.94275,0 0,0.543299 1.256995,0.768342 0.94275,1.152511 -0.314251,0.384166 -0.545256,-0.909543 -0.94275,-1.152511 -0.281074,-0.171798 -0.628502,0 -0.942752,0 -0.314245,0 -0.942745,-0.38417 -0.942745,0 0,0.543299 1.256995,0.768342 0.942745,1.152511 -0.314245,0.384166 -0.49833,-1.152511 -0.942745,-1.152511 -0.31425,0 0.314249,1.152511 0,1.152511 -0.444417,0 -0.545249,-0.909543 -0.942752,-1.152511 -0.193378,-0.118214 -2.695291,-0.162523 -2.828246,0 -0.222203,0.27165 0.31425,1.152511 0,1.152511 -0.444411,0 -0.54525,-0.909543 -0.942746,-1.152511 -0.281074,-0.171798 -0.942751,-0.38417 -0.942751,0 0,0.543299 1.257001,0.768342 0.942751,1.152511 -0.314251,0.384166 -0.54525,-0.909543 -0.942751,-1.152511 -0.281073,-0.171798 -0.628495,0 -0.942746,0 -0.31425,0 -0.628501,0 -0.94275,0 -0.314251,0 -0.942746,-0.38417 -0.942746,0 0,0.543299 0.942746,0.609214 0.942746,1.152511 0,0.384166 -0.661675,0.171798 -0.942746,0 -0.397502,-0.242973 -0.498335,-1.152511 -0.94275,-1.152511 -0.444417,0 -0.54525,0.909535 -0.942752,1.152511 -0.247884,0.151526 -3.278011,0 -3.770993,0 -0.314251,0 -0.628501,0 -0.942746,0 -0.314251,0 -0.94275,0.384166 -0.94275,0 0,-0.384169 1.256995,0 0.94275,0 -0.628499,0 -1.257001,0 -1.8855,0 -0.314247,0 0.94275,-0.384169 0.94275,0 0,0.384166 -0.661673,-0.171799 -0.94275,0 -0.397497,0.242973 -0.54525,0.909537 -0.942746,1.152505 -0.281074,0.171798 -0.942753,0.384171 -0.942753,0 0,-0.384171 1.257003,0 0.942753,0 -3.469214,0 -5.409133,0 -6.599242,0 -0.31425,0 0.942747,-0.384171 0.942747,0 0,0.543299 -0.498329,1.152512 -0.942747,1.152512 -0.31425,0 0.314251,-1.152512 0,-1.152512 -0.444417,0 -0.498333,1.152512 -0.94275,1.152512 -0.31425,0 0.314251,-1.152512 0,-1.152512 -0.444417,0 -0.498335,1.152512 -0.942746,1.152512 -0.314251,0 0,-0.768341 0,-1.152512 -1.257001,1.536681 -2.513998,3.073357 -3.770998,4.61003 z"
       id="path3680"
       inkscape:connector-curvature="0" />
    <path
       style="fill:none;stroke:#000000;stroke-width:4.45023346;stroke-linecap:butt;stroke-linejoin:miter;stroke-miterlimit:4;stroke-dasharray:none;stroke-opacity:1"
       d="m 63.429453,50.981487 c 1.256994,-0.768334 2.437747,-1.761716 3.770992,-2.305015 0.59625,-0.242973 1.257001,0 1.885496,0 0.942753,0 1.885503,0 2.828249,0 1.885496,0 3.770992,0 5.656495,0 2.82824,0 5.656489,0 8.484735,0 0.628496,0 1.256997,0 1.885496,0 0.314251,0 0.942747,-0.384171 0.942747,0 0,0.384171 -0.942747,-0.384171 -0.942747,0 0,1.424162 1.32208,1.152513 1.885499,1.152513 0.314248,0 0.94275,0.384168 0.94275,0 0,-0.543299 -1.387167,-1.152513 -0.94275,-1.152513 0.702683,0 1.21887,0.880863 1.885496,1.152513 0.366853,0.149484 2.681954,-0.178859 2.82824,0 0.222217,0.271649 -0.222196,0.88086 0,1.152502 0.226866,0.277333 3.544156,-0.277325 3.771001,0 0.222217,0.27165 -0.222216,0.880864 0,1.152513 0.222217,0.27165 0.720544,0.27165 0.94276,0 0.222197,-0.271649 -0.222216,-1.424155 0,-1.152513 0.496858,0.60743 0.445862,1.697593 0.942738,2.305023 0.2222,0.27165 0.72055,0.27165 0.94274,0 0.22222,-0.271649 -0.31424,-1.15251 0,-1.15251 0.44444,0 0.54526,0.909535 0.94276,1.15251 2.514,1.536676 -0.31424,-1.15251 0.94274,-1.15251 0.44442,0 0.94276,0.609211 0.94276,1.15251 0,0.384164 -0.94276,0.384164 -0.94276,0 0,-0.384171 0.6285,0 0.94276,0 0.31425,0 0.94274,-0.384171 0.94274,0 0,0.384164 -1.16495,-0.271649 -0.94274,0 0.49686,0.607423 1.18281,1.152505 1.88548,1.152505 0.44444,0 -0.49832,-1.152505 -0.94274,-1.152505 -0.31424,0 -0.22221,0.880856 0,1.152505 0.22222,0.27165 0.72055,-0.271649 0.94274,0 0.22222,0.27165 -0.22219,0.880861 0,1.152511 0.22222,0.271649 0.72055,-0.27165 0.94276,0 0.2222,0.271649 0.31425,1.152505 0,1.152505 -0.31424,0 -0.31424,-1.152505 0,-1.152505 0.31425,0 0,0.768334 0,1.152505 0,0.384171 0,0.768339 0,1.15251 0,0.384171 0.31425,1.152505 0,1.152505 -0.31424,0 -0.31424,-1.152505 0,-1.152505 0.31425,0 0,0.768342 0,1.152505 0,1.528811 0,0.77621 0,2.305023 0,0.384163 0,0.768334 0,1.152503 0,0.38417 0.31425,1.152512 0,1.152512 -0.31424,0 0,-1.536681 0,-1.152512 0,1.152512 0,2.305017 0,3.457527 0,0.384171 0.31425,1.152511 0,1.152511 -0.31424,0 0,-0.76834 0,-1.152511"
       id="path3682"
       inkscape:connector-curvature="0" />
  </g>
</svg>
